<svg viewBox="0 0 1024 1024" fill="none" xmlns="http://www.w3.org/2000/svg">
<rect width="1024" height="1024" fill="white"/>
<path fill-rule="evenodd" clip-rule="evenodd" d="M201.632 594.507C114.953 524.688 89.6308 400.231 147.02 300.831C204.434 201.387 324.958 161.096 428.792 201.341C498.594 114.569 623.117 89.1984 722.562 146.613C821.963 204.002 862.262 324.447 822.104 428.252C909.474 497.938 935.154 622.889 877.576 722.617C820.022 822.303 699.053 862.547 595.048 821.813C525.343 909.09 400.459 934.721 300.775 877.169C201.047 819.591 160.811 698.542 201.632 594.507Z" fill="#2FC964"/>
<rect x="421.227" y="414.469" width="32.9033" height="48.6397" rx="16.4517" transform="rotate(-15 421.227 414.469)" fill="#292929"/>
<rect x="512" y="386.516" width="32.9033" height="48.6397" rx="16.4517" transform="rotate(-15 512 386.516)" fill="#292929"/>
</svg>
