<svg viewBox="0 0 89 89" fill="none" xmlns="http://www.w3.org/2000/svg">
<path fill-rule="evenodd" clip-rule="evenodd" d="M54.8695 71.95C64.9103 74.6848 75.714 69.7492 80.0501 59.9406C84.388 50.1277 80.7618 38.8098 71.9728 33.2269C74.6563 23.2104 69.7209 12.4557 59.9402 8.13205C50.1553 3.80648 38.8739 7.39971 33.2743 16.1343C23.2541 13.443 12.492 18.3785 8.16642 28.1634C3.84275 37.944 7.43094 49.2199 16.1573 54.8219C13.4145 64.8665 18.3502 75.6778 28.1631 80.0157C37.9716 84.3517 49.284 80.7306 54.8695 71.95Z" fill="#292929"/>
<rect width="3" height="5" rx="1.5" transform="matrix(-0.93263 0.360835 0.360835 0.93263 44.8115 29.0811)" fill="#2FC964"/>
<rect width="3" height="5" rx="1.5" transform="matrix(-0.93263 0.360835 0.360835 0.93263 37.248 31.8369)" fill="#2FC964"/>
</svg>
