<svg width="89" height="89" viewBox="0 0 89 89" fill="none" xmlns="http://www.w3.org/2000/svg">
<path fill-rule="evenodd" clip-rule="evenodd" d="M33.6276 71.95C23.5868 74.6848 12.783 69.7492 8.44702 59.9406C4.10911 50.1277 7.73526 38.8098 16.5243 33.2269C13.8407 23.2104 18.7762 12.4557 28.5568 8.13205C38.3417 3.80648 49.6232 7.39971 55.2227 16.1343C65.243 13.443 76.0051 18.3785 80.3306 28.1634C84.6543 37.944 81.0661 49.2199 72.3398 54.8219C75.0825 64.8665 70.1469 75.6778 60.334 80.0157C50.5254 84.3517 39.2131 80.7306 33.6276 71.95Z" fill="#292929"/>
<rect x="43.6855" y="29.0811" width="3" height="5" rx="1.5" transform="rotate(21.1515 43.6855 29.0811)" fill="#2FC964"/>
<rect x="51.249" y="31.8369" width="3" height="5" rx="1.5" transform="rotate(21.1515 51.249 31.8369)" fill="#2FC964"/>
</svg>
