<svg width="70" height="69" viewBox="0 0 70 69" fill="none" xmlns="http://www.w3.org/2000/svg">
<path fill-rule="evenodd" clip-rule="evenodd" d="M35.0666 64.4398C43.4442 70.6135 55.301 69.9087 62.8842 62.3256C70.4707 54.7391 71.1727 42.8752 64.9904 34.497C71.1074 26.1236 70.3851 14.3126 62.8235 6.75106C55.2586 -0.813826 43.4406 -1.53343 35.0666 4.59225C26.6926 -1.53342 14.8746 -0.813805 7.30972 6.75108C-0.251862 14.3127 -0.974144 26.1236 5.14286 34.497C-1.0395 42.8752 -0.337425 54.7391 7.24906 62.3255C14.8322 69.9087 26.6891 70.6135 35.0666 64.4398Z" fill="#2FC964"/>
<rect width="3" height="5" rx="1.5" transform="matrix(-1 -5.18986e-09 -5.18986e-09 1 41.1543 24)" fill="#292929"/>
<rect width="3" height="5" rx="1.5" transform="matrix(-1 -5.18986e-09 -5.18986e-09 1 33.1543 24)" fill="#292929"/>
</svg>
