<svg width="69" height="69" viewBox="0 0 69 69" fill="none" xmlns="http://www.w3.org/2000/svg">
<path fill-rule="evenodd" clip-rule="evenodd" d="M34.4305 64.4398C26.0529 70.6135 14.1961 69.9087 6.61288 62.3256C-0.973606 54.7391 -1.67567 42.8752 4.5067 34.497C-1.61034 26.1236 -0.88805 14.3126 6.67353 6.75106C14.2384 -0.813826 26.0564 -1.53343 34.4305 4.59225C42.8045 -1.53342 54.6225 -0.813805 62.1874 6.75108C69.7489 14.3127 70.4712 26.1236 64.3542 34.497C70.5366 42.8752 69.8345 54.7391 62.248 62.3255C54.6648 69.9087 42.808 70.6135 34.4305 64.4398Z" fill="#2FC964"/>
<rect x="28.3428" y="24" width="3" height="5" rx="1.5" fill="#292929"/>
<rect x="36.3428" y="24" width="3" height="5" rx="1.5" fill="#292929"/>
</svg>
