<svg width="22" height="22" viewBox="0 0 22 22" fill="none" xmlns="http://www.w3.org/2000/svg">
<rect width="22" height="22" fill="#484848"/>
<g id="&#237;&#153;&#148;&#235;&#169;&#180;">
<path d="M-1072 -1522C-1072 -1523.1 -1071.1 -1524 -1070 -1524H4203C4204.1 -1524 4205 -1523.1 4205 -1522V225C4205 226.105 4204.1 227 4203 227H-1070C-1071.1 227 -1072 226.105 -1072 225V-1522Z" fill="#767676"/>
<g id="MP001" clip-path="url(#clip0_1_3)">
<rect width="500" height="1355" transform="translate(-382 -1300)" fill="white"/>
<g id="tab bar">
<g id="Union" filter="url(#filter0_d_1_3)">
<path fill-rule="evenodd" clip-rule="evenodd" d="M-173.728 -13C-167.146 -29.4016 -150.944 -41 -132 -41C-113.056 -41 -96.854 -29.4016 -90.2716 -13H118V55H-382V-13H-173.728Z" fill="white"/>
</g>
<g id="Frame 54">
<g id="file-text">
<path id="Vector" d="M12.8333 1.8335H5.49996C5.01373 1.8335 4.54741 2.02665 4.2036 2.37047C3.85978 2.71428 3.66663 3.1806 3.66663 3.66683V18.3335C3.66663 18.8197 3.85978 19.286 4.2036 19.6299C4.54741 19.9737 5.01373 20.1668 5.49996 20.1668H16.5C16.9862 20.1668 17.4525 19.9737 17.7963 19.6299C18.1401 19.286 18.3333 18.8197 18.3333 18.3335V7.3335L12.8333 1.8335Z" stroke="current" stroke-width="2" stroke-linecap="round" stroke-linejoin="round"/>
<path id="Vector_2" d="M12.8334 1.8335V7.3335H18.3334" stroke="current" stroke-width="2" stroke-linecap="round" stroke-linejoin="round"/>
<path id="Vector_3" d="M14.6667 11.9165H7.33337" stroke="current" stroke-width="2" stroke-linecap="round" stroke-linejoin="round"/>
<path id="Vector_4" d="M14.6667 15.5835H7.33337" stroke="current" stroke-width="2" stroke-linecap="round" stroke-linejoin="round"/>
<path id="Vector_5" d="M9.16671 8.25H8.25004H7.33337" stroke="current" stroke-width="2" stroke-linecap="round" stroke-linejoin="round"/>
</g>
</g>
</g>
</g>
<path d="M-1070 -1523H4203V-1525H-1070V-1523ZM4204 -1522V225H4206V-1522H4204ZM4203 226H-1070V228H4203V226ZM-1071 225V-1522H-1073V225H-1071ZM-1070 226C-1070.55 226 -1071 225.552 -1071 225H-1073C-1073 226.657 -1071.66 228 -1070 228V226ZM4204 225C4204 225.552 4203.55 226 4203 226V228C4204.66 228 4206 226.657 4206 225H4204ZM4203 -1523C4203.55 -1523 4204 -1522.55 4204 -1522H4206C4206 -1523.66 4204.66 -1525 4203 -1525V-1523ZM-1070 -1525C-1071.66 -1525 -1073 -1523.66 -1073 -1522H-1071C-1071 -1522.55 -1070.55 -1523 -1070 -1523V-1525Z" fill="white" fill-opacity="0.1"/>
</g>
<defs>
<filter id="filter0_d_1_3" x="-402" y="-66" width="540" height="136" filterUnits="userSpaceOnUse" color-interpolation-filters="sRGB">
<feFlood flood-opacity="0" result="BackgroundImageFix"/>
<feColorMatrix in="SourceAlpha" type="matrix" values="0 0 0 0 0 0 0 0 0 0 0 0 0 0 0 0 0 0 127 0" result="hardAlpha"/>
<feOffset dy="-5"/>
<feGaussianBlur stdDeviation="10"/>
<feComposite in2="hardAlpha" operator="out"/>
<feColorMatrix type="matrix" values="0 0 0 0 0.860471 0 0 0 0 0.860471 0 0 0 0 0.860471 0 0 0 0.25 0"/>
<feBlend mode="normal" in2="BackgroundImageFix" result="effect1_dropShadow_1_3"/>
<feBlend mode="normal" in="SourceGraphic" in2="effect1_dropShadow_1_3" result="shape"/>
</filter>
<clipPath id="clip0_1_3">
<rect width="500" height="1355" fill="white" transform="translate(-382 -1300)"/>
</clipPath>
</defs>
</svg>
