<svg width="current" height="current" viewBox="0 0 226 133" fill="none" xmlns="http://www.w3.org/2000/svg">
<g id="Group 208">
<g id="&#235;&#130;&#152;&#235;&#167;&#140;&#236;&#157;&#152; &#236;&#183;&#168;&#236;&#164;&#128;&#234;&#184;&#176;&#235;&#161;&#157; &#236;&#186;&#152;&#235;&#166;&#176;&#235;&#141;&#148;">
<path id="Vector" d="M166.832 46.6688H172.113V47.6458H168.02V53.3758C170 53.3758 171.334 53.3098 172.852 53.0193L172.984 53.9963C171.321 54.3132 169.921 54.3792 167.73 54.3792H166.832V46.6688ZM171.466 50.7484V49.7582H174.674V45.573H175.889V57.2442H174.674V50.7484H171.466Z" fill="#949494"/>
<path id="Vector_2" d="M163.069 45.5864H164.27V54.155H163.069V45.5864ZM155.292 47.3688V46.3918H160.6V49.8509H156.494V51.554C158.633 51.554 160.085 51.488 161.801 51.1712L161.907 52.1614C160.111 52.4914 158.58 52.5442 156.269 52.5442H155.305V48.9267H159.411V47.3688H155.292ZM156.639 56.9803V53.4816H157.854V55.9901H164.6V56.9803H156.639Z" fill="#949494"/>
<path id="Vector_3" d="M148.321 46.2331C148.321 49.0189 146.935 51.0125 143.819 52.1875L143.291 51.3162C144.796 50.7749 145.812 50.0355 146.433 49.1377L143.436 49.4546L143.251 48.4908L146.895 48.2663C147.014 47.9363 147.093 47.5798 147.146 47.2101H143.792V46.2331H148.321ZM145.271 53.1249V52.1743H153.008V54.9997H146.486V56.1483H153.443V57.0725H145.311V54.1283H151.833V53.1249H145.271ZM149.311 51.5802V45.7974H150.446V48.1871H151.859V45.573H153.008V51.6726H151.859V49.1641H150.446V51.5802H149.311Z" fill="#949494"/>
<path id="Vector_4" d="M215.451 34.1262H220.112V32.9908H216.811V30.0598H223.465V28.9772H216.785V28.0398H224.654V30.9312H217.986V32.0534H224.905V32.9908H221.327V34.1262H226V35.1032H215.451V34.1262ZM216.626 36.912V35.935H224.733V39.3017H223.518V36.912H216.626Z" fill="#949494"/>
<path id="Vector_5" d="M212.282 27.7493H213.497V39.394H212.282V27.7493ZM204.017 36.3178C207.107 34.8259 208.599 32.7003 208.836 29.9673H204.572V28.9903H210.051C210.051 32.4098 208.612 35.354 204.651 37.2684L204.017 36.3178Z" fill="#949494"/>
<path id="Vector_6" d="M193.336 28.3171H201.944V29.2941H198.432C198.485 30.588 200.175 31.7102 202.301 31.9743L201.852 32.9381C199.898 32.6608 198.261 31.7366 197.64 30.4164C197.006 31.7366 195.383 32.6608 193.415 32.9381L192.966 31.9743C195.105 31.7102 196.782 30.5748 196.835 29.2941H193.336V28.3171ZM192.359 34.6808V33.7038H202.908V34.6808H198.34V36.9517H197.125V34.6808H192.359ZM193.679 39.1697V35.8427H194.881V38.1795H201.746V39.1697H193.679Z" fill="#949494"/>
<path id="Vector_7" d="M181.572 29.0299H184.054V27.7757H185.269V29.0299H187.764V29.9805H185.269V29.9937C185.269 31.1027 186.312 32.0665 187.976 32.4362L187.5 33.3736C186.18 33.0699 185.203 32.3966 184.688 31.4988C184.187 32.4758 183.196 33.202 181.823 33.532L181.322 32.5946C183.025 32.2118 184.068 31.1688 184.068 29.9937V29.9805H181.572V29.0299ZM180.82 34.2714C182.998 34.2714 185.903 34.2582 188.425 33.9017L188.504 34.7863C187.448 34.9711 186.352 35.09 185.282 35.156V39.064H184.068V35.222C182.959 35.2616 181.902 35.2748 180.965 35.2748L180.82 34.2714ZM189.217 39.4072V27.7493H190.405V39.4072H189.217Z" fill="#949494"/>
<path id="Vector_8" d="M170.014 28.5811C171.822 28.5811 173.143 29.7297 173.143 31.3536C173.143 32.9907 171.822 34.1262 170.014 34.1262C168.178 34.1262 166.858 32.9907 166.858 31.3536C166.858 29.7297 168.178 28.5811 170.014 28.5811ZM166.304 35.9085C168.403 35.9085 171.334 35.8953 173.842 35.5125L173.935 36.397C171.347 36.8987 168.522 36.9119 166.449 36.9119L166.304 35.9085ZM168.033 31.3536C168.033 32.3834 168.878 33.0832 170.014 33.0832C171.123 33.0832 171.968 32.3834 171.968 31.3536C171.968 30.3106 171.123 29.6241 170.014 29.6241C168.878 29.6241 168.033 30.3106 168.033 31.3536ZM174.569 39.4205V27.7361H175.783V39.4205H174.569Z" fill="#949494"/>
<path id="Vector_9" d="M155.173 28.7791H160.573V34.2318H155.173V28.7791ZM156.362 33.2548H159.398V29.7429H156.362V33.2548ZM156.48 39.1564V35.4596H157.682V38.1662H164.283V39.1564H156.48ZM162.58 36.2782V27.7493H163.795V31.248H165.458V32.2514H163.795V36.2782H162.58Z" fill="#949494"/>
<path id="Vector_10" d="M150.962 27.7361H152.176V32.3438H153.972V33.3472H152.176V39.394H150.962V27.7361ZM143.621 36.4631V28.8847H144.822V35.4729C146.433 35.4596 148.136 35.3276 149.958 34.9579L150.103 35.9481C148.123 36.3574 146.327 36.4631 144.571 36.4631H143.621Z" fill="#949494"/>
</g>
<g id="&#236;&#183;&#168;&#236;&#164;&#128;&#235;&#161;&#156;&#234;&#183;&#184;">
<path d="M45.6527 44.2354C47.6043 45.7905 47.5799 47.5158 45.5795 49.4112C43.6279 51.3065 41.53 51.3065 39.2856 49.4112L24.9413 37.383L10.597 49.4112C8.3527 51.3065 6.23034 51.3065 4.22994 49.4112C2.27834 47.5158 2.27834 45.7905 4.22994 44.2354L17.9887 33.1549H6.64505C4.83982 33.1549 3.91281 31.9399 3.86402 29.51C3.86402 27.0314 4.79103 25.7922 6.64505 25.7922H20.4039V20.7622C20.4039 18.4294 21.8432 17.2631 24.7218 17.2631C27.6492 17.2631 29.1129 18.4294 29.1129 20.7622V25.7922H42.8717C44.7745 25.7922 45.7015 27.0314 45.6527 29.51C45.6527 31.9399 44.7257 33.1549 42.8717 33.1549H31.8939L45.6527 44.2354ZM60.2166 76.4564C60.2166 78.7891 58.7528 79.9555 55.8254 79.9555C52.9468 79.9555 51.5075 78.7891 51.5075 76.4564V21.4912C51.5075 19.1584 52.9468 17.992 55.8254 17.992C58.7528 17.992 60.2166 19.1584 60.2166 21.4912V76.4564ZM29.9911 76.4564C29.9911 78.7891 28.5274 79.9555 25.6 79.9555C22.7214 79.9555 21.2821 78.7891 21.2821 76.4564V60.9291C21.2821 60.7347 21.2577 60.5646 21.2089 60.4188C21.1601 60.273 20.9649 60.2001 20.6234 60.2001H3.20535C1.40012 60.2001 0.473106 58.9851 0.424316 56.5552C0.424316 54.0766 1.35133 52.8374 3.20535 52.8374H25.3804C27.1369 52.8374 28.3322 53.2991 28.9665 54.2224C29.6496 55.0972 29.9911 56.0935 29.9911 57.2113V76.4564Z" fill="#292929"/>
<path d="M124.193 19.693C126.193 21.0052 126.364 22.6818 124.705 24.723C123.046 26.7155 121.241 27.0557 119.29 25.7436L100.335 12.0387L81.3796 25.7436C79.428 27.0557 77.6228 26.7155 75.9639 24.723C74.3051 22.6818 74.4758 21.0052 76.4762 19.693L93.8211 7.37321H79.7696C77.9643 7.37321 77.0373 6.15824 76.9885 3.72831C76.9885 1.24977 77.9155 0.010498 79.7696 0.010498H120.9C122.802 0.010498 123.729 1.24977 123.681 3.72831C123.681 6.15824 122.754 7.37321 120.9 7.37321H106.775L124.193 19.693ZM87.5272 62.0469C85.7707 62.0469 84.551 61.5852 83.8679 60.6618C83.2337 59.787 82.9165 58.7907 82.9165 57.673V44.041C82.9165 41.7083 84.3558 40.5419 87.2344 40.5419C90.1618 40.5419 91.6255 41.7083 91.6255 44.041V53.9552C91.6255 54.1495 91.6499 54.3196 91.6987 54.4654C91.7475 54.6112 91.9427 54.6841 92.2842 54.6841H125.51C127.413 54.6841 128.34 55.9234 128.291 58.4019C128.242 60.8319 127.291 62.0469 125.437 62.0469H87.5272ZM107.507 46.7382C107.507 49.071 106.043 50.2373 103.116 50.2373C100.237 50.2373 98.7977 49.071 98.7977 46.7382V37.1886C98.7977 36.9942 98.7733 36.8241 98.7245 36.6783C98.6757 36.5325 98.4806 36.4596 98.139 36.4596H72.817C71.0117 36.4596 70.0847 35.2446 70.0359 32.8147C70.0359 30.3361 70.9629 29.0969 72.817 29.0969H102.896C104.652 29.0969 105.848 29.5586 106.482 30.4819C107.165 31.3567 107.507 32.353 107.507 33.4708V46.7382Z" fill="#292929"/>
<path d="M72.0851 130.717C70.2799 130.717 69.3529 129.502 69.3041 127.072C69.3041 124.594 70.2311 123.354 72.0851 123.354H95.2116V116.575C95.2116 116.38 95.1872 116.21 95.1384 116.064C95.0896 115.919 94.8945 115.846 94.5529 115.846H79.8427C78.0863 115.846 76.8665 115.408 76.1835 114.534C75.5492 113.61 75.2321 112.59 75.2321 111.472V97.3296C75.2321 96.2118 75.5492 95.2155 76.1835 94.3407C76.8665 93.4174 78.0863 92.9557 79.8427 92.9557H109.336C109.678 92.9557 109.873 92.8828 109.922 92.737C109.971 92.5912 109.995 92.4211 109.995 92.2267V85.4472C109.995 85.2528 109.971 85.0827 109.922 84.9369C109.873 84.7911 109.678 84.7182 109.336 84.7182H78.0131C76.2079 84.7182 75.2809 83.5032 75.2321 81.0733C75.2321 78.5947 76.1591 77.3555 78.0131 77.3555H114.093C115.85 77.3555 117.045 77.8172 117.679 78.7405C118.363 79.6153 118.704 80.6116 118.704 81.7294V95.9445C118.704 97.0623 118.363 98.0829 117.679 99.0062C117.045 99.881 115.85 100.318 114.093 100.318H84.5998C84.2582 100.318 84.0631 100.391 84.0143 100.537C83.9655 100.683 83.9411 100.853 83.9411 101.047V107.754C83.9411 107.948 83.9655 108.119 84.0143 108.264C84.0631 108.41 84.2582 108.483 84.5998 108.483H99.31C101.066 108.483 102.262 108.945 102.896 109.868C103.579 110.743 103.921 111.739 103.921 112.857V123.354H130.938C132.841 123.354 135.085 124.594 135.036 127.072C135.036 129.502 134.109 130.717 132.255 130.717H72.0851Z" fill="#292929"/>
<path d="M176.215 116.502C176.215 118.835 174.751 120.001 171.824 120.001C168.945 120.001 167.506 118.835 167.506 116.502V85.4472C167.506 85.2528 167.482 85.0827 167.433 84.9369C167.384 84.7911 167.189 84.7182 166.847 84.7182H135.085C133.28 84.7182 132.353 83.5032 132.304 81.0733C132.304 78.5947 133.231 77.3555 135.085 77.3555H171.604C173.361 77.3555 174.556 77.8172 175.19 78.7405C175.873 79.6153 176.215 80.6116 176.215 81.7294V116.502ZM129.596 130.717C127.791 130.717 126.864 129.502 126.815 127.072C126.815 124.594 127.742 123.354 129.596 123.354H179.508C181.411 123.354 182.338 124.594 182.289 127.072C182.289 129.502 181.362 130.717 179.508 130.717H129.596Z" fill="#292929"/>
</g>
<path id="&#236;&#183;&#168;&#236;&#164;&#128;&#235;&#161;&#156;&#234;&#183;&#184;_2" d="M71.865 130.717C70.0561 130.717 69.1273 129.464 69.0784 126.959C69.0784 124.403 70.0072 123.125 71.865 123.125H179.503C181.409 123.125 182.338 124.403 182.289 126.959C182.289 129.464 181.361 130.717 179.503 130.717H71.865Z" fill="#2FC964"/>
<path id="Union" fill-rule="evenodd" clip-rule="evenodd" d="M207.42 100.61C205.979 99.7928 204.148 100.299 203.331 101.74L191.221 123.1L191.222 123.1L191.753 130.44L198.324 127.127L198.323 127.126L210.433 105.767C211.25 104.325 210.744 102.494 209.303 101.677L207.42 100.61Z" fill="#2FC964"/>
</g>
</svg>
