<svg width="current" height="current" viewBox="0 0 140 106" fill="none" xmlns="http://www.w3.org/2000/svg">
<path fill-rule="evenodd" clip-rule="evenodd" d="M8.21182 44.7915C0.486132 36.0476 0.0641183 22.7398 7.74734 13.4794C15.4337 4.21516 28.5984 2.17584 38.6196 8.16394C47.3634 0.424824 60.6816 -0.00231881 69.9476 7.68552C79.2093 15.3698 81.25 28.5295 75.2678 38.5497C83.0701 47.2922 83.5214 60.6594 75.8119 69.9515C68.1055 79.2397 54.8923 81.2655 44.8615 75.22C36.1188 83.0088 22.762 83.4549 13.4755 75.75C4.18469 68.0416 2.16031 54.8234 8.21182 44.7915Z" fill="#2FC964"/>
<rect x="36.1169" y="30.7377" width="2.59782" height="3.24727" rx="1.29891" transform="rotate(-5.31802 36.1169 30.7377)" fill="#292929"/>
<rect x="42.5835" y="30.135" width="2.59782" height="3.24727" rx="1.29891" transform="rotate(-5.31802 42.5835 30.135)" fill="#292929"/>
<path fill-rule="evenodd" clip-rule="evenodd" d="M73.2849 64.1249C69.3782 55.668 72.1032 45.393 80.1005 40.0703C88.1013 34.7452 98.6375 36.2014 104.93 43.0777C113.389 39.1632 123.671 41.887 128.996 49.888C134.319 57.8854 132.866 68.416 125.997 74.7092C129.961 83.1819 127.244 93.5072 119.22 98.8475C111.2 104.185 100.632 102.709 94.3454 95.7899C85.8749 99.7457 75.5564 97.028 70.2185 89.0079C64.8783 80.9843 66.3581 70.4108 73.2849 64.1249Z" fill="#292929"/>
<rect x="88.1614" y="56.2031" width="1.81544" height="2.88335" rx="0.907722" transform="rotate(11.3537 88.1614 56.2031)" fill="#2FC964"/>
<rect x="93.187" y="57.2133" width="1.81544" height="2.88335" rx="0.907722" transform="rotate(11.3537 93.187 57.2133)" fill="#2FC964"/>
<path fill-rule="evenodd" clip-rule="evenodd" d="M81 11C75.4772 11 71 15.4772 71 21C71 26.5228 75.4772 31 81 31H113.191L115.5 35L117.809 31H126C131.523 31 136 26.5228 136 21C136 15.4772 131.523 11 126 11H81Z" fill="#E2E2E2"/>
<path d="M124.698 16.3101L124.518 21.9601H123.358L123.148 16.3101H124.698ZM123.268 23.6001C123.268 23.2101 123.548 22.9301 123.938 22.9301C124.338 22.9301 124.608 23.2101 124.608 23.6001C124.608 24.0001 124.338 24.2801 123.938 24.2801C123.548 24.2801 123.268 24.0001 123.268 23.6001Z" fill="#292929"/>
<path d="M119.017 23.16C119.867 23.16 120.427 22.49 120.427 21.46C120.427 20.44 119.867 19.77 119.017 19.77C118.197 19.77 117.527 20.52 117.527 21.46C117.527 22.4 118.197 23.16 119.017 23.16ZM116.327 26.31V18.8H117.527V19.62C117.957 18.99 118.757 18.79 119.107 18.79C120.577 18.79 121.627 19.9 121.627 21.46C121.627 23.03 120.577 24.14 119.107 24.14C118.747 24.14 117.957 23.96 117.527 23.3V26.31H116.327Z" fill="#292929"/>
<path d="M111.217 21.8C111.217 22.65 111.727 23.15 112.457 23.15C113.217 23.15 113.747 22.62 113.727 21.78V18.8H114.927V24.11H113.727V23.34C113.437 23.84 112.847 24.13 112.237 24.13C110.957 24.13 110.017 23.24 110.017 21.83V18.8H111.217V21.8Z" fill="#292929"/>
<path d="M105.004 19.76C105.304 19.19 105.964 18.79 106.604 18.79V19.86C105.644 19.86 105.004 20.75 105.004 21.51V24.11H103.824V18.8H105.004V19.76Z" fill="#292929"/>
<path d="M101.656 21.02C101.556 20.43 101.166 19.78 100.326 19.78C99.5664 19.78 98.9964 20.34 98.8864 21.02H101.656ZM97.7664 21.47C97.7664 19.9 98.8164 18.8 100.316 18.8C101.976 18.8 102.496 20.16 102.526 20.23C102.846 20.95 102.736 21.77 102.736 21.9H98.8864C99.0064 22.64 99.6564 23.14 100.326 23.14C101.266 23.14 101.556 22.59 101.586 22.55L102.546 22.96C102.546 22.96 102.056 24.13 100.316 24.13C98.8164 24.13 97.7664 23.04 97.7664 21.47Z" fill="#292929"/>
<path d="M95.6798 21.02C95.5798 20.43 95.1898 19.78 94.3498 19.78C93.5898 19.78 93.0198 20.34 92.9098 21.02H95.6798ZM91.7898 21.47C91.7898 19.9 92.8398 18.8 94.3398 18.8C95.9998 18.8 96.5198 20.16 96.5498 20.23C96.8698 20.95 96.7598 21.77 96.7598 21.9H92.9098C93.0298 22.64 93.6798 23.14 94.3498 23.14C95.2898 23.14 95.5798 22.59 95.6098 22.55L96.5698 22.96C96.5698 22.96 96.0798 24.13 94.3398 24.13C92.8398 24.13 91.7898 23.04 91.7898 21.47Z" fill="#292929"/>
<path d="M89.4782 21.36C89.4782 20.46 89.0482 19.87 88.3882 19.87C87.6282 19.87 87.0582 20.57 87.0582 21.44V24.11H85.8582V16.67H87.0582V19.58C87.4082 19.1 87.9782 18.89 88.3982 18.89C89.7382 18.89 90.6782 19.84 90.6782 21.2V24.11H89.4782V21.36Z" fill="#292929"/>
<path d="M82.9601 23.02C83.3401 23.02 83.8001 22.81 84.1101 22.5L84.9001 23.33C84.4401 23.81 83.6501 24.14 83.0001 24.14C81.4301 24.14 80.3201 23.03 80.3201 21.47C80.3201 19.9 81.4301 18.8 83.0001 18.8C83.7101 18.8 84.4201 19.12 84.9001 19.61L84.1101 20.43C83.7901 20.12 83.3401 19.92 82.9601 19.92C82.1001 19.92 81.5201 20.54 81.5201 21.47C81.5201 22.4 82.1001 23.02 82.9601 23.02Z" fill="#292929"/>
<path d="M133.5 7L134.267 11.1387L137.321 8.24139L135.509 12.0407L139.682 11.4914L135.983 13.5L139.682 15.5086L135.509 14.9593L137.321 18.7586L134.267 15.8613L133.5 20L132.733 15.8613L129.679 18.7586L131.491 14.9593L127.318 15.5086L131.017 13.5L127.318 11.4914L131.491 12.0407L129.679 8.24139L132.733 11.1387L133.5 7Z" fill="#FFD80C"/>
</svg>
