<svg viewBox="0 0 163 115" fill="none" xmlns="http://www.w3.org/2000/svg">
<path fill-rule="evenodd" clip-rule="evenodd" d="M9.5208 55.93C0.563635 45.7925 0.0742778 30.3636 8.98209 19.6272C17.8936 8.88635 33.1567 6.52207 44.7751 13.4648C54.9124 4.4926 70.353 3.99749 81.0956 12.9105C91.8333 21.8194 94.1994 37.0762 87.264 48.6934C96.3095 58.8292 96.8327 74.3267 87.8945 85.0996C78.9601 95.8681 63.6413 98.2169 52.0118 91.2081C41.8756 100.239 26.3899 100.756 15.6232 91.8229C4.85153 82.8859 2.50457 67.5607 9.5208 55.93Z" fill="#2FC964"/>
<rect x="41.8732" y="39.6367" width="3.01185" height="3.76481" rx="1.50593" transform="rotate(-5.31802 41.8732 39.6367)" fill="#292929"/>
<rect x="49.3702" y="38.9375" width="3.01185" height="3.76481" rx="1.50593" transform="rotate(-5.31802 49.3702 38.9375)" fill="#292929"/>
<path fill-rule="evenodd" clip-rule="evenodd" d="M109.382 102.941C99.5616 107.527 87.5984 104.377 81.4096 95.0782C75.2182 85.7757 76.934 73.5169 84.965 66.2292C80.4353 56.4244 83.5945 44.5115 92.8666 38.3404C102.143 32.1666 114.358 33.855 121.653 41.8276C131.461 37.2895 143.381 40.4475 149.555 49.7235C155.726 58.9954 154.041 71.2042 146.078 78.5005C150.673 88.3234 147.524 100.294 138.221 106.485C128.923 112.674 116.671 110.963 109.382 102.941Z" fill="#292929"/>
<rect x="102.212" y="57.0444" width="2.10478" height="3.34289" rx="1.05239" transform="rotate(11.3537 102.212 57.0444)" fill="#2FC964"/>
<rect x="108.039" y="58.2163" width="2.10478" height="3.34289" rx="1.05239" transform="rotate(11.3537 108.039 58.2163)" fill="#2FC964"/>
<path fill-rule="evenodd" clip-rule="evenodd" d="M92.3158 4.6377C86.7929 4.6377 82.3158 9.11484 82.3158 14.6377V17.8252C82.3158 23.3481 86.7929 27.8252 92.3158 27.8252H131.231L133.908 32.462L136.585 27.8252H147.675C153.198 27.8252 157.675 23.3481 157.675 17.8252V14.6377C157.675 9.11485 153.198 4.6377 147.675 4.6377H92.3158Z" fill="#E2E2E2"/>
<path d="M144.572 10.7939L144.364 17.3444H143.019L142.775 10.7939H144.572ZM142.914 19.2458C142.914 18.7937 143.239 18.469 143.691 18.469C144.155 18.469 144.468 18.7937 144.468 19.2458C144.468 19.7096 144.155 20.0342 143.691 20.0342C143.239 20.0342 142.914 19.7096 142.914 19.2458Z" fill="#292929"/>
<path d="M137.985 18.7354C138.971 18.7354 139.62 17.9586 139.62 16.7645C139.62 15.5819 138.971 14.8051 137.985 14.8051C137.035 14.8051 136.258 15.6747 136.258 16.7645C136.258 17.8543 137.035 18.7354 137.985 18.7354ZM134.867 22.3875V13.6805H136.258V14.6312C136.756 13.9008 137.684 13.6689 138.09 13.6689C139.794 13.6689 141.011 14.9559 141.011 16.7645C141.011 18.5847 139.794 19.8716 138.09 19.8716C137.672 19.8716 136.756 19.6629 136.258 18.8977V22.3875H134.867Z" fill="#292929"/>
<path d="M128.942 17.1593C128.942 18.1448 129.533 18.7244 130.38 18.7244C131.261 18.7244 131.875 18.11 131.852 17.1361V13.6812H133.243V19.8374H131.852V18.9447C131.516 19.5244 130.832 19.8606 130.125 19.8606C128.641 19.8606 127.551 18.8288 127.551 17.1941V13.6812H128.942V17.1593Z" fill="#292929"/>
<path d="M121.739 14.7935C122.087 14.1327 122.852 13.6689 123.594 13.6689V14.9095C122.481 14.9095 121.739 15.9413 121.739 16.8225V19.8368H120.371V13.6805H121.739V14.7935Z" fill="#292929"/>
<path d="M117.858 16.255C117.742 15.5709 117.29 14.8173 116.316 14.8173C115.435 14.8173 114.774 15.4666 114.646 16.255H117.858ZM113.348 16.7767C113.348 14.9565 114.565 13.6812 116.304 13.6812C118.229 13.6812 118.832 15.2579 118.867 15.3391C119.238 16.1738 119.11 17.1245 119.11 17.2752H114.646C114.786 18.1332 115.539 18.7129 116.316 18.7129C117.406 18.7129 117.742 18.0752 117.777 18.0288L118.89 18.5042C118.89 18.5042 118.322 19.8606 116.304 19.8606C114.565 19.8606 113.348 18.5969 113.348 16.7767Z" fill="#292929"/>
<path d="M110.929 16.255C110.813 15.5709 110.361 14.8173 109.387 14.8173C108.506 14.8173 107.845 15.4666 107.717 16.255H110.929ZM106.419 16.7767C106.419 14.9565 107.636 13.6812 109.375 13.6812C111.3 13.6812 111.903 15.2579 111.937 15.3391C112.308 16.1738 112.181 17.1245 112.181 17.2752H107.717C107.856 18.1332 108.61 18.7129 109.387 18.7129C110.477 18.7129 110.813 18.0752 110.848 18.0288L111.961 18.5042C111.961 18.5042 111.393 19.8606 109.375 19.8606C107.636 19.8606 106.419 18.5969 106.419 16.7767Z" fill="#292929"/>
<path d="M103.739 16.6489C103.739 15.6055 103.24 14.9214 102.475 14.9214C101.594 14.9214 100.933 15.733 100.933 16.7417V19.8372H99.5417V11.2114H100.933V14.5852C101.339 14.0287 102 13.7852 102.487 13.7852C104.04 13.7852 105.13 14.8867 105.13 16.4634V19.8372H103.739V16.6489Z" fill="#292929"/>
<path d="M96.1818 18.5737C96.6224 18.5737 97.1557 18.3303 97.5151 17.9708L98.431 18.9331C97.8977 19.4896 96.9818 19.8722 96.2282 19.8722C94.408 19.8722 93.1211 18.5853 93.1211 16.7767C93.1211 14.9565 94.408 13.6812 96.2282 13.6812C97.0514 13.6812 97.8745 14.0522 98.431 14.6202L97.5151 15.5709C97.1441 15.2115 96.6224 14.9797 96.1818 14.9797C95.1848 14.9797 94.5123 15.6985 94.5123 16.7767C94.5123 17.8549 95.1848 18.5737 96.1818 18.5737Z" fill="#292929"/>
<path d="M154.777 0L155.666 4.79836L159.206 1.43924L157.106 5.84403L161.944 5.20721L157.655 7.53595L161.944 9.86469L157.106 9.22788L159.206 13.6327L155.666 10.2735L154.777 15.0719L153.887 10.2735L150.347 13.6327L152.448 9.22788L147.61 9.86469L151.898 7.53595L147.61 5.20721L152.448 5.84403L150.347 1.43924L153.887 4.79836L154.777 0Z" fill="#FFD80C"/>
</svg>
