<svg viewBox="0 0 17 16" fill="none" xmlns="http://www.w3.org/2000/svg">
<path fill-rule="evenodd" clip-rule="evenodd" d="M1.74401 7.90596C0.386693 5.99832 0.583155 3.33394 2.31164 1.64827C4.04086 -0.038132 6.71089 -0.167112 8.58401 1.23954C10.4918 -0.119723 13.1578 0.0761583 14.8442 1.80539C16.5299 3.53388 16.6595 6.20236 15.2547 8.07536C16.6266 9.98424 16.4345 12.6605 14.7004 14.3516C12.967 16.0421 10.2884 16.1676 8.41461 14.7503C6.50589 16.1202 3.83124 15.9275 2.14082 14.1941C0.449672 12.46 0.324726 9.77984 1.74401 7.90596Z" fill="#EDF6F0"/>
<rect x="6.56152" y="5.63477" width="1.06266" height="1.68775" rx="0.531329" transform="rotate(0.360344 6.56152 5.63477)" fill="#26A150"/>
<rect x="9.06738" y="5.65527" width="1.06266" height="1.68775" rx="0.531329" transform="rotate(0.360344 9.06738 5.65527)" fill="#26A150"/>
</svg>
