<svg width="current" height="current" viewBox="0 0 22 24" fill="none" xmlns="http://www.w3.org/2000/svg">
<path id="Union" fill-rule="evenodd" clip-rule="evenodd" d="M7.33342 6.16667C7.33342 4.14162 8.97505 2.5 11.0001 2.5C13.0251 2.5 14.6668 4.14162 14.6668 6.16667C14.6668 8.19171 13.0251 9.83333 11.0001 9.83333C8.97505 9.83333 7.33342 8.19171 7.33342 6.16667ZM11.0001 0.5C7.87048 0.5 5.33342 3.03705 5.33342 6.16667C5.33342 9.29628 7.87048 11.8333 11.0001 11.8333C14.1297 11.8333 16.6668 9.29628 16.6668 6.16667C16.6668 3.03705 14.1297 0.5 11.0001 0.5ZM6.33342 14.5C4.83053 14.5 3.38919 15.097 2.32649 16.1597C1.26378 17.2224 0.666758 18.6638 0.666758 20.1667V22.5C0.666758 23.0523 1.11447 23.5 1.66676 23.5C2.21904 23.5 2.66676 23.0523 2.66676 22.5V20.1667C2.66676 19.1942 3.05307 18.2616 3.7407 17.5739C4.42833 16.8863 5.36096 16.5 6.33342 16.5H15.6668C16.6392 16.5 17.5718 16.8863 18.2595 17.5739C18.9471 18.2616 19.3334 19.1942 19.3334 20.1667V22.5C19.3334 23.0523 19.7811 23.5 20.3334 23.5C20.8857 23.5 21.3334 23.0523 21.3334 22.5V20.1667C21.3334 18.6638 20.7364 17.2224 19.6737 16.1597C18.611 15.097 17.1697 14.5 15.6668 14.5H6.33342Z" fill="current"/>
</svg>
