<svg viewBox="0 0 212 155" fill="none" xmlns="http://www.w3.org/2000/svg">
<path fill-rule="evenodd" clip-rule="evenodd" d="M162.85 87.2779C158.664 81.5478 159.159 73.4655 164.333 68.2911C169.51 63.1143 177.597 62.6217 183.328 66.8133C189.058 62.6215 197.146 63.114 202.322 68.2909C207.497 73.4654 207.991 81.5478 203.806 87.2779C208.037 93.0114 207.557 101.131 202.365 106.323C197.175 111.512 189.061 111.994 183.328 107.769C177.595 111.994 169.48 111.512 164.291 106.322C159.099 101.131 158.619 93.0114 162.85 87.2779Z" fill="#EDF6F0"/>
<path fill-rule="evenodd" clip-rule="evenodd" d="M91.8498 91.2779C87.6643 85.5478 88.1587 77.4655 93.3332 72.2911C98.5099 67.1143 106.597 66.6217 112.328 70.8133C118.058 66.6215 126.146 67.114 131.322 72.2909C136.497 77.4654 136.991 85.5478 132.806 91.2779C137.037 97.0114 136.557 105.131 131.365 110.323C126.175 115.512 118.061 115.994 112.328 111.769C106.595 115.994 98.4804 115.512 93.2909 110.322C88.099 105.131 87.6187 97.0114 91.8498 91.2779Z" fill="#EDF6F0"/>
<path fill-rule="evenodd" clip-rule="evenodd" d="M11.8498 85.2779C7.66425 79.5478 8.15869 71.4655 13.3332 66.2911C18.5099 61.1143 26.597 60.6217 32.3276 64.8133C38.0583 60.6215 46.1456 61.114 51.3224 66.2909C56.4969 71.4654 56.9913 79.5478 52.8056 85.2779C57.0369 91.0114 56.5566 99.1307 51.3647 104.323C46.1751 109.512 38.0607 109.994 32.3277 105.769C26.5946 109.994 18.4804 109.512 13.2909 104.322C8.09903 99.1306 7.61869 91.0114 11.8498 85.2779Z" fill="#EDF6F0"/>
<mask id="path-4-inside-1_758_3674" fill="white">
<path fill-rule="evenodd" clip-rule="evenodd" d="M87.8498 88.2779C83.6643 82.5478 84.1587 74.4655 89.3332 69.2911C94.5099 64.1143 102.597 63.6217 108.328 67.8133C114.058 63.6215 122.146 64.114 127.322 69.2909C132.497 74.4654 132.991 82.5478 128.806 88.2779C133.037 94.0114 132.557 102.131 127.365 107.323C122.175 112.512 114.061 112.994 108.328 108.769C102.595 112.994 94.4804 112.512 89.2909 107.322C84.099 102.131 83.6187 94.0114 87.8498 88.2779Z"/>
</mask>
<path d="M87.8498 88.2779L88.6545 88.8717L89.0904 88.281L88.6574 87.6881L87.8498 88.2779ZM89.3332 69.2911L90.0403 69.9982V69.9982L89.3332 69.2911ZM108.328 67.8133L107.737 68.6204L108.328 69.0523L108.918 68.6204L108.328 67.8133ZM127.322 69.2909L126.615 69.998L127.322 69.2909ZM128.806 88.2779L127.998 87.6881L127.565 88.281L128.001 88.8717L128.806 88.2779ZM108.328 108.769L108.921 107.964L108.328 107.527L107.734 107.964L108.328 108.769ZM89.2909 107.322L89.998 106.615H89.998L89.2909 107.322ZM88.6574 87.6881C84.758 82.3498 85.2197 74.8188 90.0403 69.9982L88.626 68.5839C83.0977 74.1123 82.5705 82.7458 87.0423 88.8678L88.6574 87.6881ZM90.0403 69.9982C94.863 65.1754 102.399 64.7155 107.737 68.6204L108.918 67.0062C102.796 62.528 94.1568 63.0532 88.626 68.5839L90.0403 69.9982ZM108.918 68.6204C114.257 64.7153 121.792 65.1751 126.615 69.998L128.03 68.5837C122.499 63.0529 113.86 62.5277 107.737 67.0062L108.918 68.6204ZM126.615 69.998C131.436 74.8186 131.898 82.3497 127.998 87.6881L129.613 88.8678C134.085 82.7458 133.558 74.1121 128.03 68.5837L126.615 69.998ZM128.001 88.8717C131.943 94.2131 131.494 101.779 126.658 106.616L128.072 108.03C133.619 102.483 134.131 93.8097 129.61 87.6841L128.001 88.8717ZM126.658 106.616C121.823 111.45 114.262 111.9 108.921 107.964L107.734 109.574C113.86 114.088 122.527 113.574 128.072 108.03L126.658 106.616ZM107.734 107.964C102.393 111.9 94.8326 111.45 89.998 106.615L88.5837 108.03C94.1281 113.574 102.796 114.088 108.921 109.574L107.734 107.964ZM89.998 106.615C85.1612 101.779 84.7127 94.2131 88.6545 88.8717L87.0452 87.6841C82.5247 93.8097 83.0369 102.483 88.5837 108.03L89.998 106.615Z" fill="#292929" mask="url(#path-4-inside-1_758_3674)"/>
<rect x="101.001" y="81" width="2" height="3" rx="1" fill="#292929"/>
<rect x="115.001" y="81" width="2" height="3" rx="1" fill="#292929"/>
<circle cx="100.501" cy="82.5" r="6" stroke="#292929"/>
<circle cx="116.501" cy="82.5" r="6" stroke="#292929"/>
<path d="M106.501 82.5C107.168 82 108.901 81.3 110.501 82.5" stroke="#292929"/>
<mask id="path-11-inside-2_758_3674" fill="white">
<path fill-rule="evenodd" clip-rule="evenodd" d="M15.8498 88.2779C11.6643 82.5478 12.1587 74.4655 17.3332 69.2911C22.5099 64.1143 30.597 63.6217 36.3276 67.8133C42.0583 63.6215 50.1456 64.114 55.3224 69.2909C60.4969 74.4654 60.9913 82.5478 56.8056 88.2779C61.0369 94.0114 60.5566 102.131 55.3647 107.323C50.1751 112.512 42.0607 112.994 36.3277 108.769C30.5946 112.994 22.4804 112.512 17.2909 107.322C12.099 102.131 11.6187 94.0114 15.8498 88.2779Z"/>
</mask>
<path d="M15.8498 88.2779L16.6545 88.8717L17.0904 88.281L16.6574 87.6881L15.8498 88.2779ZM17.3332 69.2911L18.0403 69.9982V69.9982L17.3332 69.2911ZM36.3276 67.8133L35.7373 68.6204L36.3277 69.0523L36.918 68.6204L36.3276 67.8133ZM55.3224 69.2909L54.6153 69.998L55.3224 69.2909ZM56.8056 88.2779L55.9981 87.6881L55.565 88.281L56.001 88.8717L56.8056 88.2779ZM36.3277 108.769L36.9209 107.964L36.3277 107.527L35.7344 107.964L36.3277 108.769ZM17.2909 107.322L17.998 106.615H17.998L17.2909 107.322ZM16.6574 87.6881C12.758 82.3498 13.2197 74.8188 18.0403 69.9982L16.626 68.5839C11.0977 74.1123 10.5705 82.7458 15.0423 88.8678L16.6574 87.6881ZM18.0403 69.9982C22.863 65.1754 30.3985 64.7155 35.7373 68.6204L36.918 67.0062C30.7955 62.528 22.1568 63.0532 16.626 68.5839L18.0403 69.9982ZM36.918 68.6204C42.2568 64.7153 49.7925 65.1751 54.6153 69.998L56.0295 68.5837C50.4987 63.0529 41.8598 62.5277 35.7373 67.0062L36.918 68.6204ZM54.6153 69.998C59.436 74.8186 59.8976 82.3497 55.9981 87.6881L57.6131 88.8678C62.0851 82.7458 61.5579 74.1121 56.0295 68.5837L54.6153 69.998ZM56.001 88.8717C59.9429 94.2131 59.4945 101.779 54.6576 106.616L56.0718 108.03C61.6188 102.483 62.1309 93.8097 57.6102 87.6841L56.001 88.8717ZM54.6576 106.616C49.8229 111.45 42.2619 111.9 36.9209 107.964L35.7344 109.574C41.8595 114.088 50.5274 113.574 56.0718 108.03L54.6576 106.616ZM35.7344 107.964C30.3934 111.9 22.8326 111.45 17.998 106.615L16.5837 108.03C22.1281 113.574 30.7958 114.088 36.9209 109.574L35.7344 107.964ZM17.998 106.615C13.1612 101.779 12.7127 94.2131 16.6545 88.8717L15.0452 87.6841C10.5247 93.8097 11.0369 102.483 16.5837 108.03L17.998 106.615Z" fill="#292929" mask="url(#path-11-inside-2_758_3674)"/>
<rect x="38.001" y="81" width="2" height="3" rx="1" fill="#292929"/>
<rect x="43.001" y="81" width="2" height="3" rx="1" fill="#292929"/>
<mask id="path-15-inside-3_758_3674" fill="white">
<path fill-rule="evenodd" clip-rule="evenodd" d="M157.85 88.2779C153.664 82.5478 154.159 74.4655 159.333 69.2911C164.51 64.1143 172.597 63.6217 178.328 67.8133C184.058 63.6215 192.146 64.114 197.322 69.2909C202.497 74.4654 202.991 82.5478 198.806 88.2779C203.037 94.0114 202.557 102.131 197.365 107.323C192.175 112.512 184.061 112.994 178.328 108.769C172.595 112.994 164.48 112.512 159.291 107.322C154.099 102.131 153.619 94.0114 157.85 88.2779Z"/>
</mask>
<path d="M157.85 88.2779L158.654 88.8717L159.09 88.281L158.657 87.6881L157.85 88.2779ZM159.333 69.2911L160.04 69.9982V69.9982L159.333 69.2911ZM178.328 67.8133L177.737 68.6204L178.328 69.0523L178.918 68.6204L178.328 67.8133ZM197.322 69.2909L196.615 69.998L197.322 69.2909ZM198.806 88.2779L197.998 87.6881L197.565 88.281L198.001 88.8717L198.806 88.2779ZM178.328 108.769L178.921 107.964L178.328 107.527L177.734 107.964L178.328 108.769ZM159.291 107.322L159.998 106.615H159.998L159.291 107.322ZM158.657 87.6881C154.758 82.3498 155.22 74.8188 160.04 69.9982L158.626 68.5839C153.098 74.1123 152.571 82.7458 157.042 88.8678L158.657 87.6881ZM160.04 69.9982C164.863 65.1754 172.399 64.7155 177.737 68.6204L178.918 67.0062C172.796 62.528 164.157 63.0532 158.626 68.5839L160.04 69.9982ZM178.918 68.6204C184.257 64.7153 191.792 65.1751 196.615 69.998L198.03 68.5837C192.499 63.0529 183.86 62.5277 177.737 67.0062L178.918 68.6204ZM196.615 69.998C201.436 74.8186 201.898 82.3497 197.998 87.6881L199.613 88.8678C204.085 82.7458 203.558 74.1121 198.03 68.5837L196.615 69.998ZM198.001 88.8717C201.943 94.2131 201.494 101.779 196.658 106.616L198.072 108.03C203.619 102.483 204.131 93.8097 199.61 87.6841L198.001 88.8717ZM196.658 106.616C191.823 111.45 184.262 111.9 178.921 107.964L177.734 109.574C183.86 114.088 192.527 113.574 198.072 108.03L196.658 106.616ZM177.734 107.964C172.393 111.9 164.833 111.45 159.998 106.615L158.584 108.03C164.128 113.574 172.796 114.088 178.921 109.574L177.734 107.964ZM159.998 106.615C155.161 101.779 154.713 94.2131 158.654 88.8717L157.045 87.6841C152.525 93.8097 153.037 102.483 158.584 108.03L159.998 106.615Z" fill="#292929" mask="url(#path-15-inside-3_758_3674)"/>
<rect x="169.001" y="81" width="2" height="3" rx="1" fill="#292929"/>
<rect x="175.001" y="81" width="2" height="3" rx="1" fill="#292929"/>
<path d="M103.608 130.896C104.556 130.896 105.18 130.212 105.18 129.18C105.18 128.136 104.556 127.452 103.608 127.452H101.352L101.364 130.896H103.608ZM99.924 135.132V126.204H103.656C105.396 126.204 106.608 127.428 106.608 129.18C106.608 130.92 105.396 132.144 103.656 132.144H101.364V135.132H99.924ZM112.726 133.584L109.438 128.628V135.132H107.998V126.204H109.582L112.726 131.184L115.87 126.204H117.466V135.132H116.026V128.628L112.726 133.584Z" fill="#292929"/>
<path d="M100.551 150.388L96.924 144.148V152H96.144V142.614H96.924L100.551 148.958L104.191 142.614H104.984V152H104.204V144.148L100.551 150.388ZM107.174 145.383H107.954V152H107.174V145.383ZM107.044 143.108C107.044 142.809 107.252 142.588 107.564 142.588C107.876 142.588 108.084 142.809 108.084 143.108C108.084 143.42 107.876 143.641 107.564 143.641C107.252 143.641 107.044 143.42 107.044 143.108ZM114.491 148.022C114.491 146.891 113.763 146.085 112.736 146.085C111.527 146.085 110.682 146.995 110.682 147.97V152H109.902V145.383H110.682V146.527C111.059 145.864 111.904 145.396 112.736 145.396C114.231 145.396 115.271 146.423 115.271 147.892V152H114.491V148.022ZM115.693 154.145C115.914 154.184 116.174 154.262 116.486 154.262C117.019 154.262 117.409 153.755 117.409 153.144V145.383H118.189V153.144C118.189 154.223 117.474 154.964 116.486 154.964C116.109 154.964 115.771 154.899 115.55 154.86L115.693 154.145ZM117.266 143.108C117.266 142.809 117.487 142.588 117.799 142.588C118.098 142.588 118.319 142.809 118.319 143.108C118.319 143.42 118.098 143.641 117.799 143.641C117.487 143.641 117.266 143.42 117.266 143.108ZM119.894 145.383H120.674V152H119.894V145.383ZM119.764 143.108C119.764 142.809 119.972 142.588 120.284 142.588C120.596 142.588 120.804 142.809 120.804 143.108C120.804 143.42 120.596 143.641 120.284 143.641C119.972 143.641 119.764 143.42 119.764 143.108Z" fill="#292929"/>
<path d="M13.936 133.872C15.772 133.872 16.972 132.6 16.972 130.668C16.972 128.736 15.772 127.464 13.936 127.464L12.376 127.476V133.86L13.936 133.872ZM10.936 135.132V126.204H13.96C16.564 126.204 18.412 128.04 18.412 130.668C18.412 133.296 16.564 135.132 13.96 135.132H10.936ZM24.0462 131.424C23.9262 130.716 23.4582 129.936 22.4502 129.936C21.5382 129.936 20.8542 130.608 20.7222 131.424H24.0462ZM19.3782 131.964C19.3782 130.08 20.6382 128.76 22.4382 128.76C24.4302 128.76 25.0542 130.392 25.0902 130.476C25.4742 131.34 25.3422 132.324 25.3422 132.48H20.7222C20.8662 133.368 21.6462 133.968 22.4502 133.968C23.5782 133.968 23.9262 133.308 23.9622 133.26L25.1142 133.752C25.1142 133.752 24.5262 135.156 22.4382 135.156C20.6382 135.156 19.3782 133.848 19.3782 131.964ZM27.5958 133.08C27.8958 133.716 28.5198 134.04 28.9398 134.04C29.5758 134.04 29.9718 133.764 29.9718 133.32C29.9718 132.324 26.7438 132.552 26.7438 130.524C26.7438 129.384 27.7278 128.724 29.0598 128.724C29.8278 128.724 30.8838 129.156 31.2558 130.224L30.0798 130.656C29.8398 129.984 29.3238 129.9 29.0598 129.9C28.4958 129.9 28.1838 130.152 28.1838 130.524C28.1838 131.484 31.4118 131.292 31.4118 133.296C31.4118 134.448 30.4518 135.216 28.9398 135.216C27.9798 135.216 26.9718 134.604 26.5158 133.692L27.5958 133.08ZM32.804 128.82H34.244V135.132H32.804V128.82ZM32.732 126.804C32.732 126.348 33.068 126.024 33.524 126.024C33.98 126.024 34.304 126.348 34.304 126.804C34.304 127.272 33.98 127.596 33.524 127.596C33.068 127.596 32.732 127.272 32.732 126.804ZM38.8924 133.98C39.9484 133.98 40.6804 133.056 40.6804 131.952C40.6804 130.884 39.9484 129.948 38.8924 129.948C37.8964 129.948 37.2244 130.752 37.2244 131.952C37.2244 133.176 37.8964 133.98 38.8924 133.98ZM35.7844 131.964C35.7844 130.092 37.0204 128.784 38.7964 128.784C39.4084 128.784 40.2124 129.048 40.6804 129.756V128.76H42.1204V134.712C42.1084 136.512 40.8964 137.844 38.9164 137.844C37.8364 137.844 36.8044 137.436 36.1924 136.44L37.3084 135.672C37.7764 136.308 38.2084 136.608 38.9164 136.608C40.0564 136.608 40.6684 135.852 40.6804 134.892V134.148C40.1404 134.88 39.3724 135.168 38.7964 135.168C37.0204 135.168 35.7844 133.836 35.7844 131.964ZM48.1871 131.7C48.1871 130.62 47.6471 129.972 46.6991 129.972C45.8471 129.972 45.1511 130.668 45.1751 131.7V135.132H43.7351V128.76H45.1751V129.828C45.5231 129.228 46.2791 128.796 46.9631 128.796C48.0551 128.796 49.6271 129.468 49.6271 131.664V135.132H48.1871V131.7ZM55.5462 131.424C55.4262 130.716 54.9582 129.936 53.9502 129.936C53.0382 129.936 52.3542 130.608 52.2222 131.424H55.5462ZM50.8782 131.964C50.8782 130.08 52.1382 128.76 53.9382 128.76C55.9302 128.76 56.5542 130.392 56.5902 130.476C56.9742 131.34 56.8422 132.324 56.8422 132.48H52.2222C52.3662 133.368 53.1462 133.968 53.9502 133.968C55.0782 133.968 55.4262 133.308 55.4622 133.26L56.6142 133.752C56.6142 133.752 56.0262 135.156 53.9382 135.156C52.1382 135.156 50.8782 133.848 50.8782 131.964ZM59.5638 129.912C59.9238 129.228 60.7158 128.748 61.4838 128.748V130.032C60.3318 130.032 59.5638 131.1 59.5638 132.012V135.132H58.1478V128.76H59.5638V129.912Z" fill="#292929"/>
<path d="M22.729 149.712C23.223 150.661 24.211 151.402 25.251 151.402C26.577 151.402 27.578 150.687 27.578 149.556C27.578 146.982 22.417 148.126 22.417 144.85C22.417 143.394 23.743 142.497 25.329 142.497C26.577 142.497 27.721 143.186 28.15 144.421L27.422 144.681C27.149 143.797 26.239 143.186 25.329 143.186C24.172 143.186 23.197 143.836 23.197 144.85C23.197 147.476 28.358 146.332 28.358 149.556C28.358 151.064 27.058 152.091 25.251 152.091C23.964 152.091 22.794 151.35 22.053 150.089L22.729 149.712ZM35.1301 148.36C35.0521 147.242 34.4801 146.02 33.0371 146.046C31.7631 146.046 30.8141 147.008 30.7101 148.373L35.1301 148.36ZM29.9171 148.698C29.9171 146.735 31.1911 145.357 33.0111 145.357C35.0391 145.357 35.5981 147.008 35.6631 147.151C36.0141 148.087 35.9101 149.01 35.9101 149.062H30.7101C30.8271 150.401 31.7761 151.337 33.0111 151.337C34.5841 151.337 35.0131 150.336 35.0911 150.219L35.7021 150.57C35.7021 150.57 35.1301 152.026 33.0111 152.026C31.1911 152.026 29.9171 150.648 29.9171 148.698ZM46.0315 147.866C46.0185 146.813 45.3685 146.085 44.4195 146.085C43.3275 146.085 42.5475 146.865 42.5475 147.775V152H41.7675V147.866C41.7675 146.813 41.1175 146.085 40.1815 146.085C39.0765 146.085 38.3095 146.995 38.3095 147.97V152H37.5295V145.383H38.3095V146.527C38.6735 145.864 39.4535 145.383 40.1815 145.383C41.0135 145.383 41.8715 145.89 42.2355 146.722C42.6645 145.942 43.5745 145.383 44.4195 145.383C45.8235 145.383 46.8115 146.345 46.8115 147.723V152H46.0315V147.866ZM48.7002 145.383H49.4802V152H48.7002V145.383ZM48.5702 143.108C48.5702 142.809 48.7782 142.588 49.0902 142.588C49.4022 142.588 49.6102 142.809 49.6102 143.108C49.6102 143.42 49.4022 143.641 49.0902 143.641C48.7782 143.641 48.5702 143.42 48.5702 143.108Z" fill="#292929"/>
<path d="M151.936 133.872C153.772 133.872 154.972 132.6 154.972 130.668C154.972 128.736 153.772 127.464 151.936 127.464L150.376 127.476V133.86L151.936 133.872ZM148.936 135.132V126.204H151.96C154.564 126.204 156.412 128.04 156.412 130.668C156.412 133.296 154.564 135.132 151.96 135.132H148.936ZM162.046 131.424C161.926 130.716 161.458 129.936 160.45 129.936C159.538 129.936 158.854 130.608 158.722 131.424H162.046ZM157.378 131.964C157.378 130.08 158.638 128.76 160.438 128.76C162.43 128.76 163.054 130.392 163.09 130.476C163.474 131.34 163.342 132.324 163.342 132.48H158.722C158.866 133.368 159.646 133.968 160.45 133.968C161.578 133.968 161.926 133.308 161.962 133.26L163.114 133.752C163.114 133.752 162.526 135.156 160.438 135.156C158.638 135.156 157.378 133.848 157.378 131.964ZM170.527 128.76L167.803 135.132H166.543L163.879 128.76H165.439L167.179 133.308L168.943 128.76H170.527ZM175.617 131.424C175.497 130.716 175.029 129.936 174.021 129.936C173.109 129.936 172.425 130.608 172.293 131.424H175.617ZM170.949 131.964C170.949 130.08 172.209 128.76 174.009 128.76C176.001 128.76 176.625 130.392 176.661 130.476C177.045 131.34 176.913 132.324 176.913 132.48H172.293C172.437 133.368 173.217 133.968 174.021 133.968C175.149 133.968 175.497 133.308 175.533 133.26L176.685 133.752C176.685 133.752 176.097 135.156 174.009 135.156C172.209 135.156 170.949 133.848 170.949 131.964ZM178.17 126.204H179.61V135.132H178.17V126.204ZM183.853 133.98C184.837 133.98 185.497 133.188 185.497 131.964C185.497 130.752 184.837 129.936 183.853 129.936C182.857 129.936 182.209 130.752 182.209 131.964C182.209 133.188 182.857 133.98 183.853 133.98ZM180.769 131.964C180.769 130.08 182.041 128.76 183.853 128.76C185.665 128.76 186.937 130.08 186.937 131.964C186.937 133.848 185.665 135.168 183.853 135.168C182.041 135.168 180.769 133.848 180.769 131.964ZM191.504 133.992C192.524 133.992 193.196 133.188 193.196 131.952C193.196 130.728 192.524 129.924 191.504 129.924C190.52 129.924 189.716 130.824 189.716 131.952C189.716 133.08 190.52 133.992 191.504 133.992ZM188.276 137.772V128.76H189.716V129.744C190.232 128.988 191.192 128.748 191.612 128.748C193.376 128.748 194.636 130.08 194.636 131.952C194.636 133.836 193.376 135.168 191.612 135.168C191.18 135.168 190.232 134.952 189.716 134.16V137.772H188.276ZM200.402 131.424C200.282 130.716 199.814 129.936 198.806 129.936C197.894 129.936 197.21 130.608 197.078 131.424H200.402ZM195.734 131.964C195.734 130.08 196.994 128.76 198.794 128.76C200.786 128.76 201.41 130.392 201.446 130.476C201.83 131.34 201.698 132.324 201.698 132.48H197.078C197.222 133.368 198.002 133.968 198.806 133.968C199.934 133.968 200.282 133.308 200.318 133.26L201.47 133.752C201.47 133.752 200.882 135.156 198.794 135.156C196.994 135.156 195.734 133.848 195.734 131.964ZM204.419 129.912C204.779 129.228 205.571 128.748 206.339 128.748V130.032C205.187 130.032 204.419 131.1 204.419 132.012V135.132H203.003V128.76H204.419V129.912Z" fill="#292929"/>
<path d="M166.528 142.614V152H165.748L159.898 143.94V152H159.118V142.614H159.898L165.748 150.674V142.614H166.528ZM171.382 151.389C172.617 151.389 173.709 150.284 173.722 148.75C173.709 147.216 172.617 146.111 171.382 146.111C170.017 146.111 169.055 147.203 169.055 148.75C169.055 150.297 170.017 151.389 171.382 151.389ZM168.275 148.75C168.275 146.8 169.549 145.422 171.369 145.422C172.292 145.422 173.176 145.942 173.696 146.917V145.383H174.476V152H173.696V150.557C173.202 151.493 172.331 152.078 171.369 152.078C169.549 152.078 168.275 150.7 168.275 148.75ZM181.334 148.36C181.256 147.242 180.684 146.02 179.241 146.046C177.967 146.046 177.018 147.008 176.914 148.373L181.334 148.36ZM176.121 148.698C176.121 146.735 177.395 145.357 179.215 145.357C181.243 145.357 181.802 147.008 181.867 147.151C182.218 148.087 182.114 149.01 182.114 149.062H176.914C177.031 150.401 177.98 151.337 179.215 151.337C180.788 151.337 181.217 150.336 181.295 150.219L181.906 150.57C181.906 150.57 181.334 152.026 179.215 152.026C177.395 152.026 176.121 150.648 176.121 148.698ZM184.55 149.4C184.55 150.544 185.278 151.402 186.318 151.402C187.501 151.402 188.346 150.57 188.346 149.543V145.383H189.126V152H188.346V150.921C187.969 151.623 187.124 152.091 186.318 152.091C184.823 152.091 183.77 150.96 183.77 149.504V145.383H184.55V149.4ZM195.582 148.022C195.582 146.891 194.854 146.085 193.827 146.085C192.618 146.085 191.773 146.995 191.773 147.97V152H190.993V145.383H191.773V146.527C192.15 145.864 192.995 145.396 193.827 145.396C195.322 145.396 196.362 146.423 196.362 147.892V152H195.582V148.022Z" fill="#292929"/>
<path d="M8.90681 29.892V30.788H5.74281V40H4.73481V30.788H1.58481V29.892H8.90681ZM14.5217 36.038C14.4097 34.89 13.9057 33.742 12.3937 33.742C11.1617 33.742 10.1957 34.694 10.0277 36.052L14.5217 36.038ZM8.99169 36.444C8.99169 34.33 10.3777 32.846 12.3517 32.846C14.5637 32.846 15.1937 34.61 15.2637 34.778C15.6837 35.926 15.5157 36.92 15.5157 36.934H10.0277C10.2097 38.236 11.1757 39.146 12.3657 39.146C13.9757 39.146 14.4517 38.152 14.5497 38.012L15.3337 38.474C15.3337 38.474 14.6897 40.042 12.3517 40.042C10.3777 40.042 8.99169 38.558 8.99169 36.444ZM20.3097 39.202C21.5697 39.202 22.7037 38.068 22.7177 36.5C22.7037 34.946 21.5697 33.812 20.3097 33.812C18.9097 33.812 17.9157 34.918 17.9157 36.5C17.9157 38.082 18.9097 39.202 20.3097 39.202ZM16.9077 36.5C16.9077 34.4 18.3077 32.916 20.2957 32.916C21.1217 32.916 22.0457 33.35 22.6897 34.386V32.874H23.6977V40H22.6897V38.6C22.0177 39.692 21.1357 40.098 20.2957 40.098C18.3077 40.098 16.9077 38.614 16.9077 36.5ZM34.7412 35.632C34.7412 34.54 34.0552 33.77 33.0752 33.77C31.9412 33.77 31.1432 34.484 31.1432 35.492V40H30.1352V35.632C30.1352 34.54 29.4632 33.77 28.4972 33.77C27.3492 33.77 26.5512 34.75 26.5512 35.8V40H25.5432V32.874H26.5512V34.092C26.9572 33.378 27.7692 32.874 28.4972 32.874C29.4352 32.874 30.3592 33.462 30.7372 34.302C31.1712 33.462 32.1372 32.874 33.0752 32.874C34.6432 32.874 35.7492 33.966 35.7492 35.52V40H34.7412V35.632ZM49.5275 28.758H50.5775V41.036H49.5275V28.758ZM41.0295 33.98C41.0295 31.376 42.3175 29.724 44.1375 29.724C45.9435 29.724 47.2315 31.376 47.2315 33.98C47.2315 36.584 45.9435 38.25 44.1375 38.25C42.3175 38.25 41.0295 36.584 41.0295 33.98ZM42.0515 33.98C42.0515 35.982 42.9055 37.312 44.1375 37.312C45.3555 37.312 46.2235 35.982 46.2235 33.98C46.2235 31.978 45.3555 30.662 44.1375 30.662C42.9055 30.662 42.0515 31.978 42.0515 33.98ZM62.1838 28.772H63.1918V41.022H62.1838V28.772ZM52.6778 37.774C54.3578 36.752 55.3518 34.512 55.3518 32.258V31.096H52.9858V30.228H58.5998V31.096H56.3738V32.258C56.3738 34.386 57.3258 36.528 58.9918 37.494L58.3478 38.264C57.1578 37.536 56.3038 36.206 55.8698 34.638C55.4498 36.332 54.5538 37.788 53.3218 38.558L52.6778 37.774ZM57.6618 34.064V33.196H59.7338V29.066H60.7138V40.378H59.7338V34.064H57.6618ZM66.5661 29.22H67.6021V32.496H74.8681V33.35H66.5661V29.22ZM65.0541 35.898V35.03H76.1561V35.898H65.0541ZM66.4961 40.728V37.144H67.5321V39.86H74.9381V40.728H66.4961ZM81.133 29.948H86.705V30.816H82.169V37.116C84.395 37.116 85.851 37.06 87.545 36.724L87.671 37.578C85.879 37.928 84.395 37.998 82.057 37.998H81.133V29.948ZM85.977 34.106V33.238H89.533V28.772H90.583V41.036H89.533V34.106H85.977ZM101.699 28.758H102.749V41.036H101.699V28.758ZM93.2014 33.98C93.2014 31.376 94.4894 29.724 96.3094 29.724C98.1154 29.724 99.4034 31.376 99.4034 33.98C99.4034 36.584 98.1154 38.25 96.3094 38.25C94.4894 38.25 93.2014 36.584 93.2014 33.98ZM94.2234 33.98C94.2234 35.982 95.0774 37.312 96.3094 37.312C97.5274 37.312 98.3954 35.982 98.3954 33.98C98.3954 31.978 97.5274 30.662 96.3094 30.662C95.0774 30.662 94.2234 31.978 94.2234 33.98ZM108.014 29.402H109.036V30.746C109.036 32.426 110.31 33.966 112.046 34.582L111.5 35.394C110.156 34.904 109.078 33.868 108.56 32.566C108.042 34.036 106.95 35.17 105.522 35.744L104.948 34.904C106.782 34.232 108.014 32.566 108.014 30.676V29.402ZM106.586 38.782C106.586 37.382 108.098 36.57 110.59 36.57C113.096 36.57 114.608 37.382 114.608 38.782C114.608 40.182 113.096 40.994 110.59 40.994C108.098 40.994 106.586 40.182 106.586 38.782ZM107.608 38.782C107.608 39.65 108.756 40.168 110.59 40.168C112.438 40.168 113.572 39.65 113.572 38.782C113.572 37.914 112.438 37.396 110.59 37.396C108.756 37.396 107.608 37.914 107.608 38.782ZM113.432 36.234V28.772H114.482V31.978H116.316V32.86H114.482V36.234H113.432ZM120.453 33.98H131.513V34.834H126.501V36.066H130.085V38.768H122.861V40.056H130.463V40.882H121.839V37.998H129.063V36.878H121.797V36.066H125.451V34.834H120.453V33.98ZM121.909 32.902V29.192H130.071V32.902H121.909ZM122.931 32.062H129.049V30.032H122.931V32.062ZM141.691 28.758H142.727V41.036H141.691V34.372H139.311V33.504H141.691V28.758ZM133.109 30.788V29.934H138.569V34.176H134.173V37.2C136.301 37.2 137.813 37.13 139.591 36.808L139.689 37.676C137.855 38.012 136.287 38.082 134.075 38.082H133.137V33.322H137.547V30.788H133.109ZM153.381 28.772H154.431V31.334H156.251V32.216H154.431V34.96H153.381V28.772ZM145.541 34.344V29.304H146.591V33.448C148.327 33.448 150.119 33.322 152.093 32.916L152.219 33.798C150.147 34.218 148.327 34.344 146.507 34.344H145.541ZM146.689 36.402V35.562H154.431V38.53H147.753V40H154.879V40.854H146.717V37.718H153.395V36.402H146.689ZM161.718 29.374H170.034V30.228C170.034 31.152 170.034 32.23 169.712 33.686L168.69 33.56C168.998 32.146 168.998 31.124 168.998 30.228H161.718V29.374ZM160.402 35.394V34.554H164.994V32.062H166.03V34.554H171.448V35.394H160.402ZM161.2 40.154C163.384 39.832 165.358 38.614 165.358 36.962V36.388H166.408V36.962C166.408 38.614 168.368 39.832 170.552 40.154L170.16 40.98C168.312 40.658 166.604 39.79 165.876 38.446C165.148 39.79 163.44 40.658 161.606 40.98L161.2 40.154ZM181.57 28.758H182.62V41.036H181.57V28.758ZM173.072 33.98C173.072 31.376 174.36 29.724 176.18 29.724C177.986 29.724 179.274 31.376 179.274 33.98C179.274 36.584 177.986 38.25 176.18 38.25C174.36 38.25 173.072 36.584 173.072 33.98ZM174.094 33.98C174.094 35.982 174.948 37.312 176.18 37.312C177.398 37.312 178.266 35.982 178.266 33.98C178.266 31.978 177.398 30.662 176.18 30.662C174.948 30.662 174.094 31.978 174.094 33.98ZM189.501 35.968H190.495V37.522H192.735V35.968H193.715V40.854H189.501V35.968ZM188.297 32.132C188.297 30.452 189.599 29.318 191.433 29.318C193.085 29.318 194.331 30.242 194.541 31.67H197.103V28.772H198.153V35.254H197.103V32.538H194.555C194.359 33.98 193.099 34.946 191.433 34.946C189.599 34.946 188.297 33.798 188.297 32.132ZM189.305 32.132C189.305 33.266 190.187 34.078 191.433 34.078C192.679 34.078 193.575 33.266 193.575 32.132C193.575 30.998 192.679 30.2 191.433 30.2C190.187 30.2 189.305 30.998 189.305 32.132ZM190.495 40.028H192.735V38.32H190.495V40.028ZM193.897 40.154C195.353 39.538 196.137 38.18 196.137 36.92V35.884H197.159V36.92C197.159 38.222 197.943 39.58 199.413 40.154L198.881 40.952C197.761 40.476 197.033 39.622 196.655 38.6C196.263 39.608 195.521 40.476 194.429 40.952L193.897 40.154ZM208.682 28.758H209.732V33.63H211.762V34.512H209.732V41.036H208.682V28.758ZM200.87 37.97V29.976H206.554V30.83H201.906V37.074C204.16 37.074 205.714 37.004 207.506 36.654L207.632 37.55C205.742 37.9 204.146 37.97 201.822 37.97H200.87Z" fill="#545454"/>
<path d="M121.342 12.768C122.03 14.112 123.006 14.784 124.03 14.784C125.55 14.8 126.398 14.064 126.398 12.928C126.398 10.24 120.462 11.392 120.462 7.28C120.462 5.328 122.062 4.176 124.254 4.192C125.774 4.208 127.23 5.056 127.886 6.896L126.366 7.44C125.95 6.208 125.118 5.68 124.238 5.664C122.974 5.664 122.158 6.288 122.158 7.28C122.158 9.936 128.078 8.928 128.078 12.944C128.078 14.928 126.526 16.288 124.014 16.256C122.286 16.24 120.91 15.248 119.934 13.552L121.342 12.768ZM133.528 16.176C131.368 16.176 129.848 14.592 129.848 12.352C129.848 10.096 131.368 8.512 133.528 8.512C135.896 8.512 136.648 10.448 136.696 10.576C137.16 11.664 137.016 12.88 137.016 13.008H131.512C131.704 14.032 132.568 14.736 133.528 14.736C134.792 14.736 135.304 14 135.432 13.776L136.792 14.384C136.424 15.248 135.352 16.176 133.528 16.176ZM131.512 11.664H135.416C135.256 10.72 134.712 9.952 133.528 9.952C132.504 9.952 131.704 10.672 131.512 11.664ZM138.744 16.144V8.512H140.44V9.632C140.952 8.912 141.88 8.432 142.776 8.48V10.048C141.416 9.984 140.44 11.184 140.44 12.352V16.144H138.744ZM152.03 8.512L148.798 16.144H147.326L144.126 8.512H145.982L148.062 13.856L150.158 8.512H152.03ZM153.718 8.496H155.414V16.128H153.718V8.496ZM153.606 5.648C153.606 5.088 154.006 4.688 154.566 4.688C155.126 4.688 155.526 5.088 155.526 5.648C155.526 6.208 155.126 6.608 154.566 6.608C154.006 6.608 153.606 6.208 153.606 5.648ZM160.945 14.576C161.537 14.576 162.225 14.272 162.657 13.792L163.825 14.96C163.169 15.68 161.969 16.192 161.009 16.192C158.737 16.192 157.137 14.592 157.137 12.352C157.137 10.096 158.737 8.496 161.009 8.496C162.017 8.496 163.137 9.008 163.825 9.744L162.657 10.896C162.225 10.416 161.537 10.112 160.945 10.112C159.681 10.112 158.833 10.992 158.833 12.352C158.833 13.696 159.681 14.576 160.945 14.576ZM168.513 16.176C166.353 16.176 164.833 14.592 164.833 12.352C164.833 10.096 166.353 8.512 168.513 8.512C170.881 8.512 171.633 10.448 171.681 10.576C172.145 11.664 172.001 12.88 172.001 13.008H166.497C166.689 14.032 167.553 14.736 168.513 14.736C169.777 14.736 170.289 14 170.417 13.776L171.777 14.384C171.409 15.248 170.337 16.176 168.513 16.176ZM166.497 11.664H170.401C170.241 10.72 169.697 9.952 168.513 9.952C167.489 9.952 166.689 10.672 166.497 11.664ZM177.199 16.208C175.087 16.208 173.567 14.608 173.567 12.352C173.567 10.096 175.087 8.496 177.199 8.496C177.823 8.496 178.767 8.768 179.423 9.632V4.704H181.119V16.144H179.423V15.072C178.751 15.888 177.823 16.208 177.199 16.208ZM175.263 12.368C175.263 13.824 176.079 14.784 177.311 14.784C178.463 14.784 179.423 13.728 179.423 12.368C179.423 11.024 178.463 9.952 177.311 9.952C176.079 9.952 175.263 10.912 175.263 12.368ZM191.088 16.224C190.544 16.224 189.584 15.984 188.88 15.088V16.16H187.184V4.704H188.88V9.648C189.584 8.72 190.544 8.512 191.104 8.512C193.216 8.512 194.736 10.112 194.736 12.368C194.736 14.624 193.216 16.224 191.088 16.224ZM188.88 12.384C188.88 13.744 189.824 14.8 190.992 14.8C192.224 14.8 193.04 13.84 193.04 12.384C193.04 10.928 192.224 9.984 190.992 9.984C189.824 9.984 188.88 11.056 188.88 12.384ZM198.688 19.456H196.832L198.496 15.504L195.424 8.512H197.296L199.392 13.568L201.408 8.512H203.248L200.4 15.376L198.688 19.456Z" fill="#292929"/>
<path fill-rule="evenodd" clip-rule="evenodd" d="M207.305 16.4951C206.857 15.881 206.91 15.015 207.465 14.4606C208.019 13.9059 208.886 13.8529 209.5 14.3018C210.114 13.8522 210.981 13.9049 211.536 14.4599C212.091 15.0146 212.144 15.8809 211.695 16.4951C212.149 17.1097 212.098 17.9802 211.541 18.5369C210.985 19.0933 210.115 19.1448 209.5 18.6915C208.886 19.1441 208.016 19.0923 207.46 18.5362C206.903 17.9798 206.852 17.1096 207.305 16.4951Z" fill="#2FC964"/>
</svg>
