<svg viewBox="0 0 20 20" fill="none" xmlns="http://www.w3.org/2000/svg">
<g id="user-x 1">
<path id="Vector" d="M13.333 17.5V15.8333C13.333 14.9493 12.9818 14.1014 12.3567 13.4763C11.7316 12.8512 10.8837 12.5 9.99967 12.5H4.16634C3.28229 12.5 2.43444 12.8512 1.80932 13.4763C1.1842 14.1014 0.833008 14.9493 0.833008 15.8333V17.5" stroke="current" stroke-width="1.5" stroke-linecap="round" stroke-linejoin="round"/>
<path id="Vector_2" d="M7.08333 9.16667C8.92428 9.16667 10.4167 7.67428 10.4167 5.83333C10.4167 3.99238 8.92428 2.5 7.08333 2.5C5.24238 2.5 3.75 3.99238 3.75 5.83333C3.75 7.67428 5.24238 9.16667 7.08333 9.16667Z" stroke="current" stroke-width="1.66667" stroke-linecap="round" stroke-linejoin="round"/>
<path id="Vector_3" d="M15 6.6665L19.1667 10.8332" stroke="current" stroke-width="1.5" stroke-linecap="round" stroke-linejoin="round"/>
<path id="Vector_4" d="M19.1667 6.6665L15 10.8332" stroke="current" stroke-width="1.5" stroke-linecap="round" stroke-linejoin="round"/>
</g>
</svg>
